<mxfile host="app.diagrams.net" agent="Mozilla/5.0 (Windows NT 10.0; Win64; x64; rv:142.0) Gecko/20100101 Firefox/142.0" version="28.2.1">
  <diagram name="Página-1" id="nWXelsuNBWqo1P5zsl4T">
    <mxGraphModel dx="786" dy="401" grid="1" gridSize="10" guides="1" tooltips="1" connect="1" arrows="1" fold="1" page="1" pageScale="1" pageWidth="827" pageHeight="1169" math="1" shadow="0">
      <root>
        <mxCell id="0" />
        <mxCell id="1" parent="0" />
        <mxCell id="F4-UrkuUyW_FGjB_XWq8-42" value="$$\alpha_\textbf{D}$$" style="text;html=1;align=center;verticalAlign=middle;whiteSpace=wrap;rounded=0;fontSize=16;fontColor=#3333FF;" parent="1" vertex="1">
          <mxGeometry x="531.1700000000001" y="397" width="60" height="30" as="geometry" />
        </mxCell>
        <mxCell id="F4-UrkuUyW_FGjB_XWq8-1" value="" style="endArrow=classic;html=1;rounded=0;" parent="1" edge="1">
          <mxGeometry width="50" height="50" relative="1" as="geometry">
            <mxPoint x="80" y="240" as="sourcePoint" />
            <mxPoint x="690" y="240" as="targetPoint" />
          </mxGeometry>
        </mxCell>
        <mxCell id="F4-UrkuUyW_FGjB_XWq8-2" value="" style="endArrow=classic;html=1;rounded=0;" parent="1" edge="1">
          <mxGeometry width="50" height="50" relative="1" as="geometry">
            <mxPoint x="240" y="440" as="sourcePoint" />
            <mxPoint x="240" y="10" as="targetPoint" />
          </mxGeometry>
        </mxCell>
        <mxCell id="F4-UrkuUyW_FGjB_XWq8-3" value="" style="endArrow=none;html=1;rounded=0;strokeWidth=3;" parent="1" edge="1">
          <mxGeometry width="50" height="50" relative="1" as="geometry">
            <mxPoint x="680" y="360" as="sourcePoint" />
            <mxPoint x="120" y="120" as="targetPoint" />
            <Array as="points">
              <mxPoint x="560" y="360" />
              <mxPoint x="240" y="120" />
            </Array>
          </mxGeometry>
        </mxCell>
        <mxCell id="F4-UrkuUyW_FGjB_XWq8-6" value="" style="curved=1;endArrow=none;html=1;rounded=0;endFill=0;strokeWidth=3;" parent="1" edge="1">
          <mxGeometry width="50" height="50" relative="1" as="geometry">
            <mxPoint x="240" y="120" as="sourcePoint" />
            <mxPoint x="560" y="360" as="targetPoint" />
            <Array as="points">
              <mxPoint x="490" y="180" />
            </Array>
          </mxGeometry>
        </mxCell>
        <mxCell id="F4-UrkuUyW_FGjB_XWq8-7" value="" style="curved=1;endArrow=none;html=1;rounded=0;strokeWidth=3;endFill=0;" parent="1" edge="1">
          <mxGeometry width="50" height="50" relative="1" as="geometry">
            <mxPoint x="240" y="120" as="sourcePoint" />
            <mxPoint x="560" y="360" as="targetPoint" />
            <Array as="points">
              <mxPoint x="310" y="260" />
              <mxPoint x="410" y="400" />
              <mxPoint x="530" y="420" />
            </Array>
          </mxGeometry>
        </mxCell>
        <mxCell id="F4-UrkuUyW_FGjB_XWq8-8" value="$$i_c(t)$$" style="text;html=1;align=center;verticalAlign=middle;whiteSpace=wrap;rounded=0;fontSize=20;" parent="1" vertex="1">
          <mxGeometry x="183" y="23" width="60" height="30" as="geometry" />
        </mxCell>
        <mxCell id="F4-UrkuUyW_FGjB_XWq8-9" value="$$t$$" style="text;html=1;align=center;verticalAlign=middle;whiteSpace=wrap;rounded=0;fontSize=20;" parent="1" vertex="1">
          <mxGeometry x="640" y="243" width="60" height="30" as="geometry" />
        </mxCell>
        <mxCell id="F4-UrkuUyW_FGjB_XWq8-11" value="" style="endArrow=none;dashed=1;html=1;rounded=0;" parent="1" edge="1">
          <mxGeometry width="50" height="50" relative="1" as="geometry">
            <mxPoint x="160" y="360" as="sourcePoint" />
            <mxPoint x="560" y="360" as="targetPoint" />
          </mxGeometry>
        </mxCell>
        <mxCell id="F4-UrkuUyW_FGjB_XWq8-12" value="" style="endArrow=classic;startArrow=classic;html=1;rounded=0;" parent="1" edge="1">
          <mxGeometry width="50" height="50" relative="1" as="geometry">
            <mxPoint x="200" y="240" as="sourcePoint" />
            <mxPoint x="200" y="120" as="targetPoint" />
          </mxGeometry>
        </mxCell>
        <mxCell id="F4-UrkuUyW_FGjB_XWq8-13" value="" style="endArrow=classic;startArrow=classic;html=1;rounded=0;" parent="1" edge="1">
          <mxGeometry width="50" height="50" relative="1" as="geometry">
            <mxPoint x="200" y="360" as="sourcePoint" />
            <mxPoint x="200" y="240" as="targetPoint" />
          </mxGeometry>
        </mxCell>
        <mxCell id="F4-UrkuUyW_FGjB_XWq8-14" value="$$\frac{I}{2}$$" style="text;html=1;align=center;verticalAlign=middle;whiteSpace=wrap;rounded=0;fontSize=16;" parent="1" vertex="1">
          <mxGeometry x="149" y="170" width="60" height="30" as="geometry" />
        </mxCell>
        <mxCell id="F4-UrkuUyW_FGjB_XWq8-15" value="$$-\frac{I}{2}$$" style="text;html=1;align=center;verticalAlign=middle;whiteSpace=wrap;rounded=0;fontSize=16;" parent="1" vertex="1">
          <mxGeometry x="140" y="290" width="60" height="30" as="geometry" />
        </mxCell>
        <mxCell id="F4-UrkuUyW_FGjB_XWq8-19" value="" style="endArrow=none;dashed=1;html=1;rounded=0;" parent="1" edge="1">
          <mxGeometry width="50" height="50" relative="1" as="geometry">
            <mxPoint x="560" y="420" as="sourcePoint" />
            <mxPoint x="560" y="70" as="targetPoint" />
          </mxGeometry>
        </mxCell>
        <mxCell id="F4-UrkuUyW_FGjB_XWq8-18" value="$$T_c$$" style="text;html=1;align=center;verticalAlign=middle;whiteSpace=wrap;rounded=0;fontSize=16;" parent="1" vertex="1">
          <mxGeometry x="384" y="51" width="60" height="30" as="geometry" />
        </mxCell>
        <mxCell id="F4-UrkuUyW_FGjB_XWq8-21" value="" style="endArrow=classic;startArrow=classic;html=1;rounded=0;" parent="1" edge="1">
          <mxGeometry width="50" height="50" relative="1" as="geometry">
            <mxPoint x="240" y="80" as="sourcePoint" />
            <mxPoint x="560" y="80" as="targetPoint" />
          </mxGeometry>
        </mxCell>
        <mxCell id="F4-UrkuUyW_FGjB_XWq8-22" value="" style="endArrow=none;dashed=1;html=1;rounded=0;" parent="1" edge="1">
          <mxGeometry width="50" height="50" relative="1" as="geometry">
            <mxPoint x="400" y="360" as="sourcePoint" />
            <mxPoint x="400" y="130" as="targetPoint" />
          </mxGeometry>
        </mxCell>
        <mxCell id="F4-UrkuUyW_FGjB_XWq8-23" value="" style="endArrow=classic;startArrow=classic;html=1;rounded=0;" parent="1" edge="1">
          <mxGeometry width="50" height="50" relative="1" as="geometry">
            <mxPoint x="400" y="139" as="sourcePoint" />
            <mxPoint x="560" y="139" as="targetPoint" />
          </mxGeometry>
        </mxCell>
        <mxCell id="F4-UrkuUyW_FGjB_XWq8-24" value="$$\frac{T_c}{2}$$" style="text;html=1;align=center;verticalAlign=middle;whiteSpace=wrap;rounded=0;fontSize=16;" parent="1" vertex="1">
          <mxGeometry x="450" y="100" width="60" height="30" as="geometry" />
        </mxCell>
        <mxCell id="F4-UrkuUyW_FGjB_XWq8-25" value="&lt;div&gt;Sobcomutação&lt;/div&gt;&lt;div&gt;ou&lt;/div&gt;&lt;div&gt;comutação retardada&lt;/div&gt;" style="text;html=1;align=center;verticalAlign=middle;whiteSpace=wrap;rounded=0;fontSize=14;" parent="1" vertex="1">
          <mxGeometry x="423" y="147" width="140" height="50" as="geometry" />
        </mxCell>
        <mxCell id="F4-UrkuUyW_FGjB_XWq8-26" value="&lt;div&gt;Sobrecomutação&lt;/div&gt;&lt;div&gt;ou&lt;/div&gt;&lt;div&gt;comutação adiantada&lt;/div&gt;" style="text;html=1;align=center;verticalAlign=middle;whiteSpace=wrap;rounded=0;fontSize=14;" parent="1" vertex="1">
          <mxGeometry x="250" y="290" width="150" height="60" as="geometry" />
        </mxCell>
        <mxCell id="F4-UrkuUyW_FGjB_XWq8-27" value="&lt;div&gt;, comutação linear&lt;/div&gt;" style="text;html=1;align=center;verticalAlign=middle;whiteSpace=wrap;rounded=0;fontSize=14;rotation=37;" parent="1" vertex="1">
          <mxGeometry x="357" y="218" width="150" height="60" as="geometry" />
        </mxCell>
        <mxCell id="F4-UrkuUyW_FGjB_XWq8-28" value="&lt;b&gt;&lt;font&gt;$$\textbf{A}$$&lt;/font&gt;&lt;/b&gt;" style="text;html=1;align=center;verticalAlign=middle;whiteSpace=wrap;rounded=0;rotation=37;fontSize=16;" parent="1" vertex="1">
          <mxGeometry x="350" y="191" width="60" height="30" as="geometry" />
        </mxCell>
        <mxCell id="F4-UrkuUyW_FGjB_XWq8-29" value="$$\textbf{D}$$" style="text;html=1;align=center;verticalAlign=middle;whiteSpace=wrap;rounded=0;rotation=0;fontSize=16;fontStyle=1" parent="1" vertex="1">
          <mxGeometry x="268" y="249" width="60" height="30" as="geometry" />
        </mxCell>
        <mxCell id="F4-UrkuUyW_FGjB_XWq8-30" value="&lt;span&gt;$$\textbf{C}$$&lt;/span&gt;" style="text;html=1;align=center;verticalAlign=middle;whiteSpace=wrap;rounded=0;rotation=0;fontSize=16;fontStyle=1" parent="1" vertex="1">
          <mxGeometry x="320" y="127" width="60" height="30" as="geometry" />
        </mxCell>
        <mxCell id="F4-UrkuUyW_FGjB_XWq8-31" value="" style="curved=1;endArrow=none;html=1;rounded=0;strokeWidth=3;endFill=0;" parent="1" edge="1">
          <mxGeometry width="50" height="50" relative="1" as="geometry">
            <mxPoint x="240" y="120" as="sourcePoint" />
            <mxPoint x="560" y="360" as="targetPoint" />
            <Array as="points">
              <mxPoint x="420" y="360" />
            </Array>
          </mxGeometry>
        </mxCell>
        <mxCell id="F4-UrkuUyW_FGjB_XWq8-32" value="" style="endArrow=none;html=1;rounded=0;strokeWidth=1;strokeColor=#3333FF;" parent="1" edge="1">
          <mxGeometry width="50" height="50" relative="1" as="geometry">
            <mxPoint x="540" y="290" as="sourcePoint" />
            <mxPoint x="560" y="360" as="targetPoint" />
          </mxGeometry>
        </mxCell>
        <mxCell id="F4-UrkuUyW_FGjB_XWq8-33" value="" style="endArrow=none;html=1;rounded=0;strokeWidth=1;strokeColor=#3333FF;" parent="1" edge="1">
          <mxGeometry width="50" height="50" relative="1" as="geometry">
            <mxPoint x="540" y="420" as="sourcePoint" />
            <mxPoint x="560" y="360" as="targetPoint" />
          </mxGeometry>
        </mxCell>
        <mxCell id="F4-UrkuUyW_FGjB_XWq8-34" value="" style="verticalLabelPosition=bottom;verticalAlign=top;html=1;shape=mxgraph.basic.arc;startAngle=0.01939182613008276;endAngle=0.076535587713105;rotation=-15;strokeColor=#3333FF;" parent="1" vertex="1">
          <mxGeometry x="509.99" y="309.96" width="80.34" height="67.37" as="geometry" />
        </mxCell>
        <mxCell id="F4-UrkuUyW_FGjB_XWq8-35" value="" style="verticalLabelPosition=bottom;verticalAlign=top;html=1;shape=mxgraph.basic.arc;startAngle=0.3808059976491963;endAngle=0.4291966651214258;rotation=30;strokeColor=#3333FF;" parent="1" vertex="1">
          <mxGeometry x="495.17" y="321.38" width="100" height="79.33" as="geometry" />
        </mxCell>
        <mxCell id="F4-UrkuUyW_FGjB_XWq8-38" value="$$\alpha_\textbf{C}$$" style="text;html=1;align=center;verticalAlign=middle;whiteSpace=wrap;rounded=0;fontSize=16;fontColor=#3333FF;" parent="1" vertex="1">
          <mxGeometry x="530.33" y="283" width="60" height="30" as="geometry" />
        </mxCell>
        <mxCell id="F4-UrkuUyW_FGjB_XWq8-39" value="$$\textbf{B}$$" style="text;html=1;align=center;verticalAlign=middle;whiteSpace=wrap;rounded=0;rotation=0;fontSize=16;fontStyle=1" parent="1" vertex="1">
          <mxGeometry x="404" y="318" width="60" height="30" as="geometry" />
        </mxCell>
      </root>
    </mxGraphModel>
  </diagram>
</mxfile>
